<mxfile host="app.diagrams.net" modified="2021-11-20T09:11:58.975Z" agent="5.0 (Windows NT 10.0; Win64; x64) AppleWebKit/537.36 (KHTML, like Gecko) Chrome/95.0.4638.69 Safari/537.36 Edg/95.0.1020.53" etag="w8nXUhfDQm37xTdBuFhK" version="15.8.3" type="github">
  <diagram name="Page-1" id="7a6c530e-6e37-e111-ec74-82921da8cc10">
    <mxGraphModel dx="948" dy="542" grid="1" gridSize="10" guides="1" tooltips="1" connect="1" arrows="1" fold="1" page="1" pageScale="1.5" pageWidth="1169" pageHeight="826" background="none" math="0" shadow="0">
      <root>
        <mxCell id="0" style=";html=1;" />
        <mxCell id="1" style=";html=1;" parent="0" />
        <mxCell id="UQ-vGMDMijCBS2E-WO_m-31" value="" style="rounded=0;whiteSpace=wrap;html=1;fillColor=#00BEF2;" vertex="1" parent="1">
          <mxGeometry x="767" y="403" width="183" height="340" as="geometry" />
        </mxCell>
        <mxCell id="UQ-vGMDMijCBS2E-WO_m-36" value="" style="rounded=1;whiteSpace=wrap;html=1;fillColor=#66FFFF;" vertex="1" parent="1">
          <mxGeometry x="798.5" y="598.5" width="120" height="134" as="geometry" />
        </mxCell>
        <mxCell id="UQ-vGMDMijCBS2E-WO_m-44" style="edgeStyle=none;rounded=0;orthogonalLoop=1;jettySize=auto;html=1;entryX=0;entryY=0.5;entryDx=0;entryDy=0;entryPerimeter=0;" edge="1" parent="1" source="UQ-vGMDMijCBS2E-WO_m-35" target="UQ-vGMDMijCBS2E-WO_m-42">
          <mxGeometry relative="1" as="geometry" />
        </mxCell>
        <mxCell id="UQ-vGMDMijCBS2E-WO_m-45" style="edgeStyle=none;rounded=0;orthogonalLoop=1;jettySize=auto;html=1;entryX=0;entryY=0.5;entryDx=0;entryDy=0;entryPerimeter=0;" edge="1" parent="1" source="UQ-vGMDMijCBS2E-WO_m-35" target="UQ-vGMDMijCBS2E-WO_m-43">
          <mxGeometry relative="1" as="geometry" />
        </mxCell>
        <mxCell id="UQ-vGMDMijCBS2E-WO_m-35" value="" style="rounded=1;whiteSpace=wrap;html=1;fillColor=#66FFFF;" vertex="1" parent="1">
          <mxGeometry x="795" y="419" width="120" height="134" as="geometry" />
        </mxCell>
        <mxCell id="UQ-vGMDMijCBS2E-WO_m-7" style="rounded=0;orthogonalLoop=1;jettySize=auto;html=1;" edge="1" parent="1" source="UQ-vGMDMijCBS2E-WO_m-1">
          <mxGeometry relative="1" as="geometry">
            <mxPoint x="360" y="560" as="targetPoint" />
          </mxGeometry>
        </mxCell>
        <mxCell id="UQ-vGMDMijCBS2E-WO_m-1" value="" style="verticalLabelPosition=bottom;html=1;verticalAlign=top;align=center;strokeColor=none;fillColor=#00BEF2;shape=mxgraph.azure.computer;pointerEvents=1;" vertex="1" parent="1">
          <mxGeometry x="120" y="450" width="50" height="45" as="geometry" />
        </mxCell>
        <mxCell id="UQ-vGMDMijCBS2E-WO_m-9" style="edgeStyle=none;rounded=0;orthogonalLoop=1;jettySize=auto;html=1;" edge="1" parent="1" source="UQ-vGMDMijCBS2E-WO_m-2">
          <mxGeometry relative="1" as="geometry">
            <mxPoint x="360" y="560" as="targetPoint" />
          </mxGeometry>
        </mxCell>
        <mxCell id="UQ-vGMDMijCBS2E-WO_m-2" value="" style="verticalLabelPosition=bottom;html=1;verticalAlign=top;align=center;strokeColor=none;fillColor=#00BEF2;shape=mxgraph.azure.computer;pointerEvents=1;" vertex="1" parent="1">
          <mxGeometry x="120" y="540" width="50" height="45" as="geometry" />
        </mxCell>
        <mxCell id="UQ-vGMDMijCBS2E-WO_m-10" style="edgeStyle=none;rounded=0;orthogonalLoop=1;jettySize=auto;html=1;" edge="1" parent="1" source="UQ-vGMDMijCBS2E-WO_m-3">
          <mxGeometry relative="1" as="geometry">
            <mxPoint x="360" y="560" as="targetPoint" />
          </mxGeometry>
        </mxCell>
        <mxCell id="UQ-vGMDMijCBS2E-WO_m-3" value="" style="verticalLabelPosition=bottom;html=1;verticalAlign=top;align=center;strokeColor=none;fillColor=#00BEF2;shape=mxgraph.azure.computer;pointerEvents=1;" vertex="1" parent="1">
          <mxGeometry x="120" y="630" width="50" height="45" as="geometry" />
        </mxCell>
        <mxCell id="UQ-vGMDMijCBS2E-WO_m-6" value="" style="endArrow=none;dashed=1;html=1;rounded=0;" edge="1" parent="1">
          <mxGeometry width="50" height="50" relative="1" as="geometry">
            <mxPoint x="280" y="760" as="sourcePoint" />
            <mxPoint x="280" y="400" as="targetPoint" />
          </mxGeometry>
        </mxCell>
        <mxCell id="UQ-vGMDMijCBS2E-WO_m-24" style="edgeStyle=none;rounded=0;orthogonalLoop=1;jettySize=auto;html=1;entryX=0;entryY=0.75;entryDx=0;entryDy=0;" edge="1" parent="1" source="UQ-vGMDMijCBS2E-WO_m-14" target="UQ-vGMDMijCBS2E-WO_m-18">
          <mxGeometry relative="1" as="geometry" />
        </mxCell>
        <mxCell id="UQ-vGMDMijCBS2E-WO_m-25" style="edgeStyle=none;rounded=0;orthogonalLoop=1;jettySize=auto;html=1;entryX=0;entryY=0.5;entryDx=0;entryDy=0;" edge="1" parent="1" source="UQ-vGMDMijCBS2E-WO_m-14" target="UQ-vGMDMijCBS2E-WO_m-21">
          <mxGeometry relative="1" as="geometry" />
        </mxCell>
        <mxCell id="UQ-vGMDMijCBS2E-WO_m-26" style="edgeStyle=none;rounded=0;orthogonalLoop=1;jettySize=auto;html=1;entryX=0;entryY=0.5;entryDx=0;entryDy=0;" edge="1" parent="1" source="UQ-vGMDMijCBS2E-WO_m-14" target="UQ-vGMDMijCBS2E-WO_m-22">
          <mxGeometry relative="1" as="geometry" />
        </mxCell>
        <mxCell id="UQ-vGMDMijCBS2E-WO_m-14" value="" style="outlineConnect=0;dashed=0;verticalLabelPosition=bottom;verticalAlign=top;align=center;html=1;shape=mxgraph.aws3.api_gateway;fillColor=#00BEF2;gradientColor=none;" vertex="1" parent="1">
          <mxGeometry x="390" y="516" width="76.5" height="93" as="geometry" />
        </mxCell>
        <mxCell id="UQ-vGMDMijCBS2E-WO_m-15" value="负载均衡" style="text;html=1;align=center;verticalAlign=middle;resizable=0;points=[];autosize=1;strokeColor=none;fillColor=none;" vertex="1" parent="1">
          <mxGeometry x="398.25" y="740" width="60" height="20" as="geometry" />
        </mxCell>
        <mxCell id="UQ-vGMDMijCBS2E-WO_m-16" value="网页" style="text;html=1;align=center;verticalAlign=middle;resizable=0;points=[];autosize=1;strokeColor=none;fillColor=none;" vertex="1" parent="1">
          <mxGeometry x="120" y="740" width="40" height="20" as="geometry" />
        </mxCell>
        <mxCell id="UQ-vGMDMijCBS2E-WO_m-17" value="" style="endArrow=none;dashed=1;html=1;rounded=0;" edge="1" parent="1">
          <mxGeometry width="50" height="50" relative="1" as="geometry">
            <mxPoint x="540" y="760" as="sourcePoint" />
            <mxPoint x="540" y="400" as="targetPoint" />
          </mxGeometry>
        </mxCell>
        <mxCell id="UQ-vGMDMijCBS2E-WO_m-18" value="" style="aspect=fixed;perimeter=ellipsePerimeter;html=1;align=center;shadow=0;dashed=0;spacingTop=3;image;image=img/lib/active_directory/database_server.svg;fontFamily=Helvetica;fontSize=12;fontColor=rgba(0, 0, 0, 1);strokeColor=rgba(0, 0, 0, 1);fillColor=#00BEF2;" vertex="1" parent="1">
          <mxGeometry x="590" y="400" width="89" height="89" as="geometry" />
        </mxCell>
        <mxCell id="UQ-vGMDMijCBS2E-WO_m-21" value="" style="aspect=fixed;perimeter=ellipsePerimeter;html=1;align=center;shadow=0;dashed=0;spacingTop=3;image;image=img/lib/active_directory/database_server.svg;fontFamily=Helvetica;fontSize=12;fontColor=rgba(0, 0, 0, 1);strokeColor=rgba(0, 0, 0, 1);fillColor=#00BEF2;" vertex="1" parent="1">
          <mxGeometry x="590" y="510" width="89" height="89" as="geometry" />
        </mxCell>
        <mxCell id="UQ-vGMDMijCBS2E-WO_m-22" value="" style="aspect=fixed;perimeter=ellipsePerimeter;html=1;align=center;shadow=0;dashed=0;spacingTop=3;image;image=img/lib/active_directory/database_server.svg;fontFamily=Helvetica;fontSize=12;fontColor=rgba(0, 0, 0, 1);strokeColor=rgba(0, 0, 0, 1);fillColor=#00BEF2;" vertex="1" parent="1">
          <mxGeometry x="590" y="630" width="89" height="89" as="geometry" />
        </mxCell>
        <mxCell id="UQ-vGMDMijCBS2E-WO_m-23" value="应用服务区" style="text;html=1;align=center;verticalAlign=middle;resizable=0;points=[];autosize=1;strokeColor=none;fillColor=none;" vertex="1" parent="1">
          <mxGeometry x="590" y="740" width="80" height="20" as="geometry" />
        </mxCell>
        <mxCell id="UQ-vGMDMijCBS2E-WO_m-27" value="" style="endArrow=none;dashed=1;html=1;rounded=0;" edge="1" parent="1">
          <mxGeometry width="50" height="50" relative="1" as="geometry">
            <mxPoint x="730" y="760" as="sourcePoint" />
            <mxPoint x="730" y="400" as="targetPoint" />
          </mxGeometry>
        </mxCell>
        <mxCell id="UQ-vGMDMijCBS2E-WO_m-28" value="" style="aspect=fixed;perimeter=ellipsePerimeter;html=1;align=center;shadow=0;dashed=0;spacingTop=3;image;image=img/lib/active_directory/database_server.svg;fontFamily=Helvetica;fontSize=12;fontColor=rgba(0, 0, 0, 1);strokeColor=rgba(0, 0, 0, 1);fillColor=#00BEF2;" vertex="1" parent="1">
          <mxGeometry x="815.5" y="419" width="89" height="89" as="geometry" />
        </mxCell>
        <mxCell id="UQ-vGMDMijCBS2E-WO_m-32" value="" style="aspect=fixed;perimeter=ellipsePerimeter;html=1;align=center;shadow=0;dashed=0;spacingTop=3;image;image=img/lib/active_directory/database_server.svg;fontFamily=Helvetica;fontSize=12;fontColor=rgba(0, 0, 0, 1);strokeColor=rgba(0, 0, 0, 1);fillColor=#00BEF2;" vertex="1" parent="1">
          <mxGeometry x="820" y="607.5" width="89" height="89" as="geometry" />
        </mxCell>
        <mxCell id="UQ-vGMDMijCBS2E-WO_m-33" value="golang 数据处理服务" style="text;html=1;align=center;verticalAlign=middle;resizable=0;points=[];autosize=1;strokeColor=none;fillColor=none;" vertex="1" parent="1">
          <mxGeometry x="795" y="523" width="130" height="20" as="geometry" />
        </mxCell>
        <mxCell id="UQ-vGMDMijCBS2E-WO_m-34" value="python 数据采集服务" style="text;html=1;align=center;verticalAlign=middle;resizable=0;points=[];autosize=1;strokeColor=none;fillColor=none;" vertex="1" parent="1">
          <mxGeometry x="795" y="698.5" width="130" height="20" as="geometry" />
        </mxCell>
        <mxCell id="UQ-vGMDMijCBS2E-WO_m-39" value="" style="shape=flexArrow;endArrow=classic;startArrow=classic;html=1;rounded=0;width=5.714285714285714;startSize=5.645714285714286;startWidth=10.448979591836734;endWidth=10.448979591836734;endSize=5.645714285714286;fillColor=#fff2cc;strokeColor=#d6b656;" edge="1" parent="1">
          <mxGeometry width="100" height="100" relative="1" as="geometry">
            <mxPoint x="858.21" y="600" as="sourcePoint" />
            <mxPoint x="858.21" y="551" as="targetPoint" />
          </mxGeometry>
        </mxCell>
        <mxCell id="UQ-vGMDMijCBS2E-WO_m-40" value="基础服务区" style="text;html=1;align=center;verticalAlign=middle;resizable=0;points=[];autosize=1;strokeColor=none;fillColor=none;" vertex="1" parent="1">
          <mxGeometry x="810" y="742" width="80" height="20" as="geometry" />
        </mxCell>
        <mxCell id="UQ-vGMDMijCBS2E-WO_m-41" value="" style="endArrow=none;dashed=1;html=1;rounded=0;" edge="1" parent="1">
          <mxGeometry width="50" height="50" relative="1" as="geometry">
            <mxPoint x="1000" y="760" as="sourcePoint" />
            <mxPoint x="1000" y="399.9999999999999" as="targetPoint" />
          </mxGeometry>
        </mxCell>
        <mxCell id="UQ-vGMDMijCBS2E-WO_m-42" value="主数据库" style="strokeWidth=2;html=1;shape=mxgraph.flowchart.database;whiteSpace=wrap;fillColor=#00BEF2;" vertex="1" parent="1">
          <mxGeometry x="1080" y="456" width="60" height="60" as="geometry" />
        </mxCell>
        <mxCell id="UQ-vGMDMijCBS2E-WO_m-43" value="分钟级数据库" style="strokeWidth=2;html=1;shape=mxgraph.flowchart.database;whiteSpace=wrap;fillColor=#00BEF2;" vertex="1" parent="1">
          <mxGeometry x="1080" y="560" width="60" height="60" as="geometry" />
        </mxCell>
      </root>
    </mxGraphModel>
  </diagram>
</mxfile>
